<svg id="Capa_1" enable-background="new 0 0 511.681 511.681" height="512" viewBox="0 0 511.681 511.681" width="512" xmlns="http://www.w3.org/2000/svg"><g><path d="m511.681 119.311v320.805c0 6.828-5.53 12.358-12.358 12.358h-473.048l-26.275-333.163 30.224-20.293 436.307-9.759z" fill="#f2fbff"/><path d="m38.105 452.474h-25.747c-6.828 0-12.358-5.531-12.358-12.359v-320.805l14.239-20.293 11.508 20.293v320.805c0 6.828 5.53 12.359 12.358 12.359z" fill="#d8ecfe"/><path d="m511.681 71.566v47.745h-511.681l27.449-60.103h471.873c6.829-.001 12.359 5.54 12.359 12.358z" fill="#b3dafe"/><path d="m38.105 59.207c-6.828 0-12.358 5.541-12.358 12.358v47.745h-25.747v-47.744c0-6.818 5.53-12.358 12.358-12.358h25.747z" fill="#8ac9fe"/><path d="m393.376 254.594v75.072l-141.165 4.174 21.955-83.366h115.09c2.277.001 4.12 1.855 4.12 4.12z" fill="#b3dafe"/><path d="m252.212 332.278v-77.683c0-2.266 1.844-4.119 4.119-4.119h25.747c-2.276 0-4.119 1.854-4.119 4.119v59.413l-12.009 22.963z" fill="#8ac9fe"/><path d="m393.376 319.25v42.359c0 2.276-1.844 4.119-4.12 4.119h-113.231l-17.413-23.572 17.047-26.515 35.759-25.372c1.123-.793 2.554-.978 3.841-.494z" fill="#c9f6b0"/><path d="m463.511 318.035-25.098 18.579c-1.236.906-1.854 2.43-1.627 3.934l3.068 19.907-74.724-56.871 96.229 7.026c3.81.277 5.221 5.149 2.152 7.425z" fill="#fe99a0"/><path d="m282.078 365.728h-25.747c-2.276 0-4.119-1.844-4.119-4.119v-29.331l25.747-18.27v47.601c0 2.275 1.843 4.119 4.119 4.119z" fill="#9be69d"/><path d="m434.785 375.175-75.428-64.552c-3.017-2.585-.978-7.528 2.987-7.24l22.162 1.617c-1.205 1.607-1.236 4.047.597 5.623l54.213 46.396 2.224 14.408c.577 3.768-3.851 6.24-6.755 3.748z" fill="#fd8087"/><path d="m160.212 260.391h-18.876v-18.876c0-4.142-3.357-7.5-7.5-7.5s-7.5 3.358-7.5 7.5v18.876h-19.512c-4.143 0-7.5 3.358-7.5 7.5s3.357 7.5 7.5 7.5h19.512v19.511c0 4.142 3.357 7.5 7.5 7.5s7.5-3.358 7.5-7.5v-19.511h18.876c4.143 0 7.5-3.358 7.5-7.5s-3.358-7.5-7.5-7.5z" fill="#c5d3dd"/><path d="m467.406 96.759h-3.492c-4.143 0-7.5-3.358-7.5-7.5s3.357-7.5 7.5-7.5h3.492c4.143 0 7.5 3.358 7.5 7.5s-3.357 7.5-7.5 7.5z" fill="#d8ecfe"/><path d="m438.167 96.759h-3.492c-4.143 0-7.5-3.358-7.5-7.5s3.357-7.5 7.5-7.5h3.492c4.143 0 7.5 3.358 7.5 7.5s-3.358 7.5-7.5 7.5z" fill="#f2fdec"/><path d="m408.927 96.759h-3.492c-4.143 0-7.5-3.358-7.5-7.5s3.357-7.5 7.5-7.5h3.492c4.143 0 7.5 3.358 7.5 7.5s-3.357 7.5-7.5 7.5z" fill="#d8ecfe"/><g fill="#c5d3dd"><path d="m217.442 348.314h-10.813c-4.143 0-7.5-3.358-7.5-7.5s3.357-7.5 7.5-7.5h5.373v-4.344c0-4.142 3.357-7.5 7.5-7.5s7.5 3.358 7.5 7.5v9.784c0 5.271-4.288 9.56-9.56 9.56z"/><path d="m175.296 348.314h-25.354c-4.143 0-7.5-3.358-7.5-7.5s3.357-7.5 7.5-7.5h25.354c4.143 0 7.5 3.358 7.5 7.5s-3.358 7.5-7.5 7.5zm-55.779 0h-25.354c-4.143 0-7.5-3.358-7.5-7.5s3.357-7.5 7.5-7.5h25.354c4.143 0 7.5 3.358 7.5 7.5s-3.357 7.5-7.5 7.5z"/><path d="m60.407 348.314h-10.813c-5.271 0-9.56-4.289-9.56-9.56v-9.784c0-4.142 3.357-7.5 7.5-7.5s7.5 3.358 7.5 7.5v4.344h5.373c4.143 0 7.5 3.358 7.5 7.5s-3.357 7.5-7.5 7.5z"/><path d="m47.534 309.841c-4.143 0-7.5-3.358-7.5-7.5v-20.714c0-4.142 3.357-7.5 7.5-7.5s7.5 3.358 7.5 7.5v20.714c0 4.142-3.357 7.5-7.5 7.5zm0-45.571c-4.143 0-7.5-3.358-7.5-7.5v-20.714c0-4.142 3.357-7.5 7.5-7.5s7.5 3.358 7.5 7.5v20.714c0 4.142-3.357 7.5-7.5 7.5z"/><path d="m47.534 214.947c-4.143 0-7.5-3.358-7.5-7.5v-9.784c0-5.271 4.288-9.56 9.56-9.56h10.813c4.143 0 7.5 3.358 7.5 7.5s-3.357 7.5-7.5 7.5h-5.373v4.344c0 4.142-3.357 7.5-7.5 7.5z"/><path d="m172.873 203.103h-25.354c-4.143 0-7.5-3.358-7.5-7.5s3.357-7.5 7.5-7.5h25.354c4.143 0 7.5 3.358 7.5 7.5s-3.358 7.5-7.5 7.5zm-55.779 0h-25.354c-4.143 0-7.5-3.358-7.5-7.5s3.357-7.5 7.5-7.5h25.354c4.143 0 7.5 3.358 7.5 7.5s-3.358 7.5-7.5 7.5z"/><path d="m219.502 214.947c-4.143 0-7.5-3.358-7.5-7.5v-4.344h-5.373c-4.143 0-7.5-3.358-7.5-7.5s3.357-7.5 7.5-7.5h10.813c5.271 0 9.56 4.289 9.56 9.56v9.784c0 4.142-3.358 7.5-7.5 7.5zm-2.06-11.844h.01z"/><path d="m219.502 307.861c-4.143 0-7.5-3.358-7.5-7.5v-20.714c0-4.142 3.357-7.5 7.5-7.5s7.5 3.358 7.5 7.5v20.714c0 4.142-3.358 7.5-7.5 7.5zm0-45.571c-4.143 0-7.5-3.358-7.5-7.5v-20.714c0-4.142 3.357-7.5 7.5-7.5s7.5 3.358 7.5 7.5v20.714c0 4.142-3.358 7.5-7.5 7.5z"/><path d="m314.997 96.759h-270.722c-4.143 0-7.5-3.358-7.5-7.5s3.357-7.5 7.5-7.5h270.722c4.143 0 7.5 3.358 7.5 7.5s-3.358 7.5-7.5 7.5z"/></g></g></svg>